<svg xmlns="http://www.w3.org/2000/svg" version="1.1" xmlns:xlink="http://www.w3.org/1999/xlink" xmlns:svgjs="http://svgjs.com/svgjs" width="1440" height="560" preserveAspectRatio="none" viewBox="0 0 1440 560"><g mask="url(&quot;#SvgjsMask1000&quot;)" fill="none"><rect width="1440" height="560" x="0" y="0" fill="#1e3266"></rect><path d="M1464 560L0 560 L0 283.15Q82.12 245.26, 120 327.38Q163.66 299.04, 192 342.71Q199.17 277.88, 264 285.05Q334.74 235.79, 384 306.53Q456.9 259.43, 504 332.33Q562.22 318.55, 576 376.77Q629.92 310.69, 696 364.62Q719.25 267.87, 816 291.11Q894.57 249.68, 936 328.24Q983.74 255.98, 1056 303.72Q1084.7 260.42, 1128 289.12Q1188.35 277.47, 1200 337.82Q1274.71 292.53, 1320 367.24Q1327.44 302.69, 1392 310.13Q1433.28 279.41, 1464 320.69z" fill="#182f5d"></path><path d="M1464 560L0 560 L0 371.36Q50.61 301.97, 120 352.57Q170.84 331.41, 192 382.26Q245.87 364.13, 264 418Q275.71 357.71, 336 369.42Q366.08 327.5, 408 357.59Q461.93 339.51, 480 393.44Q504.61 346.05, 552 370.66Q605.72 352.38, 624 406.1Q696.16 358.26, 744 430.42Q759.5 373.93, 816 389.43Q841.61 343.03, 888 368.64Q985.47 346.11, 1008 443.58Q1035.2 398.78, 1080 425.98Q1102.57 328.55, 1200 351.12Q1245.06 324.18, 1272 369.24Q1326.73 351.98, 1344 406.71Q1396.02 338.73, 1464 390.74z" fill="#25467d"></path><path d="M1488 560L0 560 L0 455.86Q50.41 386.27, 120 436.69Q148.08 392.77, 192 420.86Q244.82 401.69, 264 454.51Q291.44 409.95, 336 437.4Q387.65 369.05, 456 420.7Q507.78 400.48, 528 452.26Q578.63 430.89, 600 481.53Q637.41 398.94, 720 436.35Q750.39 394.75, 792 425.14Q883.79 396.93, 912 488.72Q956.1 412.82, 1032 456.92Q1086.73 391.65, 1152 446.38Q1177.69 400.07, 1224 425.77Q1277.63 407.4, 1296 461.03Q1345.92 390.95, 1416 440.87Q1446.03 398.9, 1488 428.93z" fill="#356cb1"></path><path d="M1512 560L0 560 L0 518.95Q21.76 468.71, 72 490.47Q140.91 439.38, 192 508.3Q280.19 476.49, 312 564.68Q378.76 511.44, 432 578.21Q465.52 491.74, 552 525.26Q625.41 478.67, 672 552.08Q722.39 530.48, 744 580.87Q752.59 517.46, 816 526.06Q885.9 475.96, 936 545.86Q1017.04 506.9, 1056 587.94Q1105.24 517.18, 1176 566.42Q1178.69 497.11, 1248 499.79Q1295.63 475.42, 1320 523.06Q1361.56 492.62, 1392 534.17Q1466.67 488.84, 1512 563.51z" fill="white"></path></g><defs><mask id="SvgjsMask1000"><rect width="1440" height="560" fill="#ffffff"></rect></mask></defs></svg>